# xmcd CD database file
#
# Track frame offsets:
#	182
#	13324
#	25484
#	39594
#	51863
#	65772
#	76738
#	91352
#	101387
#	115727
#	130107
#	141817
#	155251
#	168424
#	180507
#	193725
#	207816
#	221920
#	232823
#	246095
#	257710
#	272889
#
# Disc length: 3803 seconds
#
# Revision: 0
# Processed by: cddbd v1.5.2PL0 Copyright (c) Steve Scherf et al.
# Submitted via: CDex 1.70beta2
#
DISCID=340ed916
DTITLE=Dizzy Gillespie - 1951-1952 - Classics
DYEAR=1951
DGENRE=Jazz
TTITLE0=We Love to Boogie
TTITLE1=Tin Tin Daeo
TTITLE2=Birks Works
TTITLE3=Lady Be Good
TTITLE4=Love Me Pretty Baby
TTITLE5=The Champ-Part1
TTITLE6=The Champ-Part 2
TTITLE7=I'm in a Mess
TTITLE8=Schooldays
TTITLE9=Swing Low Sweet Cadillac
TTITLE10=Bopsie's Blues
TTITLE11=I Couldn't Beat the Rap
TTITLE12=Caravan
TTITLE13=Nobody Knows
TTITLE14=The Bluest Blues
TTITLE15=Sunny Side of the Street
TTITLE16=Stardust
TTITLE17=Time on My Hands
TTITLE18=Groovin' with the Nursery Rhymes
TTITLE19=This is Happiness
TTITLE20=Diz's Tune (Mrs. Diz)
TTITLE21=Our Love is Here to Stay
EXTD=YEAR: 1951
EXTT0=
EXTT1=
EXTT2=
EXTT3=
EXTT4=
EXTT5=
EXTT6=
EXTT7=
EXTT8=
EXTT9=
EXTT10=
EXTT11=
EXTT12=
EXTT13=
EXTT14=
EXTT15=
EXTT16=
EXTT17=
EXTT18=
EXTT19=
EXTT20=
EXTT21=
PLAYORDER=
